HIERARCHY
ROOT SpineBase
{
  OFFSET 0.000000 0.000000 0.000000
  CHANNELS 6 Xposition Yposition Zposition Zrotation Xrotation Yrotation
  JOINT SpineMid
  {
    OFFSET 0.000000 31.232826 -0.000000
    CHANNELS 3 Zrotation Xrotation Yrotation
    JOINT SpineShoulder
    {
      OFFSET -0.126353 23.227070 -0.689011
      CHANNELS 3 Zrotation Xrotation Yrotation
      JOINT Neck
      {
        OFFSET -0.111426 7.693739 -0.539034
        CHANNELS 3 Zrotation Xrotation Yrotation
        JOINT Head
        {
          OFFSET 0.215687 13.524616 -1.419786
          CHANNELS 3 Zrotation Xrotation Yrotation
          End Site
          {
            OFFSET 0 0 0
          }
        }
      }
      JOINT ShoulderLeft
      {
        OFFSET -17.135844 -2.913963 0.150708
        CHANNELS 3 Zrotation Xrotation Yrotation
        JOINT ElbowLeft
        {
          OFFSET -4.210846 -27.171594 1.598972
          CHANNELS 3 Zrotation Xrotation Yrotation
          JOINT WristLeft
          {
            OFFSET -3.398760 -23.411891 -5.612095
            CHANNELS 3 Zrotation Xrotation Yrotation
            JOINT HandLeft
            {
              OFFSET 0.934871 -5.582403 -1.323651
              CHANNELS 3 Zrotation Xrotation Yrotation
              JOINT HandTipLeft
              {
                OFFSET -0.581271 -7.388731 -0.794939
                CHANNELS 3 Zrotation Xrotation Yrotation
                End Site
                {
                  OFFSET 0 0 0
                }
              }
              JOINT ThumbLeft
              {
                OFFSET 3.506504 0.524509 -1.969322
                CHANNELS 3 Zrotation Xrotation Yrotation
                End Site
                {
                  OFFSET 0 0 0
                }
              }
            }
          }
        }
      }
      JOINT ShoulderRight
      {
        OFFSET 17.406234 -3.552436 -2.946068
        CHANNELS 3 Zrotation Xrotation Yrotation
        JOINT ElbowRight
        {
          OFFSET 5.834593 -28.029761 1.518611
          CHANNELS 3 Zrotation Xrotation Yrotation
          JOINT WristRight
          {
            OFFSET 1.371455 -23.188870 -7.095587
            CHANNELS 3 Zrotation Xrotation Yrotation
            JOINT HandRight
            {
              OFFSET -1.592312 -6.507483 -1.921653
              CHANNELS 3 Zrotation Xrotation Yrotation
              JOINT HandTipRight
              {
                OFFSET -0.651785 -4.753019 0.744457
                CHANNELS 3 Zrotation Xrotation Yrotation
                End Site
                {
                  OFFSET 0 0 0
                }
              }
              JOINT ThumbRight
              {
                OFFSET 1.833799 0.502568 -3.208050
                CHANNELS 3 Zrotation Xrotation Yrotation
                End Site
                {
                  OFFSET 0 0 0
                }
              }
            }
          }
        }
      }
    }
  }
  JOINT HipLeft
  {
    OFFSET -8.481088 1.114805 -2.688746
    CHANNELS 3 Zrotation Xrotation Yrotation
    JOINT KneeLeft
    {
      OFFSET -3.872519 -35.487393 -0.638046
      CHANNELS 3 Zrotation Xrotation Yrotation
      JOINT AnkleLeft
      {
        OFFSET -1.466809 -35.908785 2.924983
        CHANNELS 3 Zrotation Xrotation Yrotation
        JOINT FootLeft
        {
          OFFSET -2.032745 -5.340525 -11.520753
          CHANNELS 3 Zrotation Xrotation Yrotation
          End Site
          {
            OFFSET 0 0 0
          }
        }
      }
    }
  }
  JOINT HipRight
  {
    OFFSET 6.929024 0.405654 -4.456026
    CHANNELS 3 Zrotation Xrotation Yrotation
    JOINT KneeRight
    {
      OFFSET 1.222658 -34.360373 1.463631
      CHANNELS 3 Zrotation Xrotation Yrotation
      JOINT AnkleRight
      {
        OFFSET 0.917225 -37.210872 6.486677
        CHANNELS 3 Zrotation Xrotation Yrotation
        JOINT FootRight
        {
          OFFSET -0.872340 -6.441074 -9.598790
          CHANNELS 3 Zrotation Xrotation Yrotation
          End Site
          {
            OFFSET 0 0 0
          }
        }
      }
    }
  }
}
MOTION
Frames: 13
Frame Time: 0.033333
84.786058 80.189559 384.428699 0.000000 -0.000000 6.542278 0.000000 0.000000 -6.542278 -0.000000 0.000000 0.000000 -0.000000 0.000000 0.000000 0.000000 0.000000 0.000000 -0.000000 0.000000 0.000000 -0.000000 0.000000 0.000000 -0.000000 0.000000 0.000000 -0.000000 0.000000 0.000000 0.000000 0.000000 0.000000 0.000000 0.000000 0.000000 -0.000000 0.000000 0.000000 -0.000000 0.000000 0.000000 -0.000000 0.000000 0.000000 -0.000000 0.000000 0.000000 0.000000 0.000000 0.000000 0.000000 0.000000 0.000000 0.000000 0.000000 -6.542278 -0.000000 0.000000 0.000000 -0.000000 0.000000 0.000000 0.000000 0.000000 0.000000 0.000000 0.000000 -6.542278 -0.000000 0.000000 0.000000 -0.000000 0.000000 0.000000 0.000000 0.000000 0.000000
84.787283 80.191772 384.297815 0.011327 0.004391 7.174382 -0.011786 -0.002942 -7.174383 -0.000000 0.000000 0.000000 -0.000000 0.000000 0.000000 0.000000 0.000000 0.000000 -0.000000 0.000000 0.000000 -0.000000 0.000000 0.000000 -0.000000 0.000000 0.000000 -2.305935 3.926857 0.018045 0.000000 0.000000 0.000000 0.000000 0.000000 0.000000 -0.000000 0.000000 0.000000 -0.000000 0.000000 0.000000 1.060447 -2.049902 0.209035 -1.727971 4.820877 -0.618119 0.000000 0.000000 0.000000 0.000000 0.000000 0.000000 -0.011786 -0.002942 -7.174383 -0.000000 0.000000 0.000000 0.302088 -4.854279 1.333080 0.000000 0.000000 0.000000 -0.011786 -0.002942 -7.174383 -0.000000 0.000000 0.000000 -0.932348 0.641689 1.295479 0.000000 0.000000 0.000000
84.795598 80.191850 384.186211 0.011497 0.002202 7.687285 -0.011688 -0.000644 -7.687285 -0.000000 0.000000 0.000000 -0.000000 0.000000 0.000000 0.000000 0.000000 0.000000 -0.000000 0.000000 0.000000 -0.000000 0.000000 0.000000 -0.617393 0.664703 0.261167 -3.566225 6.642275 -0.157128 0.000000 0.000000 0.000000 0.000000 0.000000 0.000000 0.402652 -0.943392 -0.171047 -0.405521 0.942162 0.177696 1.959364 -3.688709 0.392721 -3.006848 8.888084 -1.035771 0.000000 0.000000 0.000000 0.000000 0.000000 0.000000 -0.011688 -0.000644 -7.687285 0.270814 -1.012084 0.065753 0.451232 -8.355687 2.425057 0.000000 0.000000 0.000000 -0.011688 -0.000644 -7.687285 -0.000000 0.000000 0.000000 -1.633272 1.059112 2.269848 0.000000 0.000000 0.000000
84.811003 80.189793 384.093889 0.000515 -0.006563 8.079991 0.000413 0.006570 -8.079991 -0.000000 0.000000 0.000000 -0.000000 0.000000 0.000000 0.000000 0.000000 0.000000 -0.000000 0.000000 0.000000 -0.000000 0.000000 0.000000 -0.778149 0.795332 0.322941 -4.844496 9.233082 -0.077603 0.000000 0.000000 0.000000 0.000000 0.000000 0.000000 0.520486 -1.242204 -0.224398 -0.525470 1.240104 0.235727 2.687314 -4.903566 0.531734 -3.795552 11.976567 -1.293436 0.000000 0.000000 0.000000 0.000000 0.000000 0.000000 0.000413 0.006570 -8.079991 0.339251 -1.341973 0.086355 0.884372 -12.007150 3.332130 0.000000 0.000000 0.000000 0.000413 0.006570 -8.079991 -0.000000 0.000000 0.000000 -2.104664 1.272078 2.931457 0.000000 0.000000 0.000000
84.833498 80.185601 384.020849 -0.021615 -0.021902 8.351872 0.024567 0.018530 -8.351880 -0.000000 0.000000 0.000000 -0.000000 0.000000 0.000000 0.000000 0.000000 0.000000 -0.000000 0.000000 0.000000 -0.000000 0.000000 0.000000 -0.830692 0.781593 0.333394 -5.755520 11.261228 0.045700 0.000000 0.000000 0.000000 0.000000 0.000000 0.000000 0.584266 -1.428143 -0.257908 -0.589759 0.613496 0.225240 3.237240 -4.867394 0.610728 -4.078979 13.925710 -1.421901 0.000000 0.000000 0.000000 0.000000 0.000000 0.000000 0.024567 0.018530 -8.351880 0.365391 -1.562833 0.098493 1.385403 -15.085904 3.959863 0.000000 0.000000 0.000000 0.024567 0.018530 -8.351880 -0.000000 0.000000 0.000000 -2.349241 1.293641 3.287398 0.000000 0.000000 0.000000
84.863084 80.179274 383.967089 -0.054891 -0.043814 8.502614 0.060766 0.035216 -8.502653 -0.000000 0.000000 0.000000 -0.000000 0.000000 0.000000 0.000000 0.000000 0.000000 -0.000000 0.000000 0.000000 -0.000000 0.000000 0.000000 -0.771722 0.620407 0.291018 -6.286515 12.705741 0.175168 0.000000 0.000000 0.000000 0.000000 0.000000 0.000000 0.594668 -1.502310 -0.272231 -0.599252 0.537917 0.231482 3.592676 -5.038966 0.607596 -3.877592 14.662945 -1.433245 0.000000 0.000000 0.000000 0.000000 0.000000 0.000000 0.060766 0.035216 -8.502653 0.350115 -1.678455 0.102105 1.901408 -17.485103 4.259096 0.000000 0.000000 0.000000 0.060766 0.035216 -8.502653 -0.000000 0.000000 0.000000 -2.369529 1.130131 3.342542 0.000000 0.000000 0.000000
84.901824 80.173524 383.938166 -0.107330 -0.078448 8.436129 0.117678 0.061853 -8.436266 -0.000000 0.000000 0.000000 -0.000000 0.000000 0.000000 0.000000 0.000000 0.000000 -0.000000 0.000000 0.000000 -0.000000 0.000000 0.000000 -0.000000 0.000000 0.000000 -6.738206 13.924435 0.440881 0.000000 0.000000 0.000000 0.000000 0.000000 0.000000 0.509068 -1.302762 -0.237456 -0.505293 0.144919 0.179089 3.619487 -4.631599 0.539424 -3.823371 14.192474 -1.340758 0.000000 0.000000 0.000000 0.000000 0.000000 0.000000 0.117678 0.061853 -8.436266 0.272254 -1.716668 0.096275 2.581503 -18.642468 3.237898 0.000000 0.000000 0.000000 0.117678 0.061853 -8.436266 -0.000000 0.000000 0.000000 -1.971265 -2.627870 3.354629 0.000000 0.000000 0.000000
84.950843 80.164232 383.942330 -0.179829 -0.120312 8.186075 0.195128 0.093480 -8.186423 -0.000000 0.000000 0.000000 0.083283 0.856093 -0.005537 0.000000 0.000000 0.000000 -0.000000 0.000000 0.000000 -0.000000 0.000000 0.000000 0.662207 -0.609565 -0.255654 -7.483426 14.599876 0.781145 0.000000 0.000000 0.000000 0.000000 0.000000 0.000000 0.365262 -1.011017 -0.187230 -0.373706 -0.272173 0.120544 3.842714 -4.139430 0.372502 -2.496644 13.381490 -1.139839 0.000000 0.000000 0.000000 0.000000 0.000000 0.000000 0.195128 0.093480 -8.186423 0.142675 -1.602007 0.078974 3.038792 -19.590546 2.843321 0.000000 0.000000 0.000000 0.017523 -0.804237 -8.222075 0.047408 0.913887 0.034172 -1.950493 -0.897658 3.041075 0.000000 0.000000 0.000000
84.999739 80.151152 383.926415 -0.246839 -0.171137 8.152194 0.268613 0.134403 -8.152878 -0.000000 0.000000 0.000000 0.356033 0.997123 0.018393 0.000000 0.000000 0.000000 -0.000000 0.000000 0.000000 -0.582902 0.612898 0.053762 0.582360 -0.613413 -0.047527 -4.090257 12.169575 -0.083346 0.000000 0.000000 0.000000 0.000000 0.000000 0.000000 0.285299 -0.866923 -0.162693 -0.292422 -0.546968 0.085834 3.345267 -1.980780 -0.057838 -1.386479 10.188633 -0.610114 0.000000 0.000000 0.000000 0.000000 0.000000 0.000000 0.268613 0.134403 -8.152878 -0.080231 -1.080094 0.036800 3.076275 -18.389430 2.265161 0.000000 0.000000 0.000000 -0.018772 -0.939155 -8.199778 0.131364 1.103566 0.043616 -1.423708 -0.716815 2.226693 0.000000 0.000000 0.000000
85.049191 80.133960 383.918180 -0.310173 -0.234663 8.167771 0.340368 0.188212 -8.168965 -0.000000 0.000000 0.000000 0.629452 1.147266 0.041527 0.000000 0.000000 0.000000 -0.000000 0.000000 0.000000 -0.737520 0.772535 0.069437 1.697404 -1.332189 -0.363095 -4.947687 10.616591 0.341648 0.000000 0.000000 0.000000 0.000000 0.000000 0.000000 0.220071 -0.938158 -0.181411 -0.176910 -0.557524 0.083402 2.758070 -1.490267 0.006165 0.808279 9.292058 -0.525036 0.000000 0.000000 0.000000 0.000000 0.000000 0.000000 0.340368 0.188212 -8.168965 -0.182119 -0.979979 0.023621 1.996989 -10.342895 0.665904 0.000000 0.000000 0.000000 -0.056977 -1.015653 -8.225693 0.221080 1.248315 0.051450 -0.709171 -1.241324 1.236169 0.000000 0.000000 0.000000
85.089637 80.115327 383.920081 -0.371601 -0.286484 8.108719 0.408298 0.231198 -8.110472 -0.000000 0.000000 0.000000 0.878230 1.245950 0.062856 0.000000 0.000000 0.000000 -0.000000 0.000000 0.000000 -0.864936 0.946675 0.076814 1.539920 -1.990283 -0.380580 -4.452129 10.800997 0.358634 0.000000 0.000000 0.000000 0.000000 0.000000 0.000000 0.113285 -0.978939 -0.196541 -0.077941 -0.410905 0.105407 2.810546 -2.077183 0.121008 1.344692 9.699720 -0.615081 0.000000 0.000000 0.000000 0.000000 0.000000 0.000000 0.408298 0.231198 -8.110472 -0.227650 -0.902691 0.016525 1.552425 -7.363945 0.408707 0.000000 0.000000 0.000000 -0.051695 -0.996339 -8.171096 0.280934 1.280434 0.054413 0.314033 -5.228807 0.273729 0.000000 0.000000 0.000000
85.125801 80.102394 383.927754 -0.385118 -0.275113 7.928562 0.419388 0.219354 -7.930290 -0.000000 0.000000 0.000000 0.916970 1.165410 0.068433 0.000000 0.000000 0.000000 -0.000000 0.000000 0.000000 -0.937845 1.065524 0.078580 1.407779 -2.182418 -0.346995 -4.058756 10.329188 0.313292 0.000000 0.000000 0.000000 0.000000 0.000000 0.000000 -0.019058 -0.924739 -0.193603 0.074701 -0.344229 0.100972 2.443161 -1.691682 0.090398 2.059668 10.183426 -0.737545 0.000000 0.000000 0.000000 0.000000 0.000000 0.000000 0.419388 0.219354 -7.930290 -0.277249 -0.913757 0.012522 0.898169 -2.298566 -0.135383 0.000000 0.000000 0.000000 -0.064083 -0.901299 -7.988829 0.323106 1.176948 0.052343 0.425436 -6.410813 0.282703 0.000000 0.000000 0.000000
85.162048 80.096457 383.954282 -0.344149 -0.191061 7.580058 0.366346 0.143991 -7.581092 -0.000000 0.000000 0.000000 0.746549 0.941874 0.057270 0.000000 0.000000 0.000000 -0.000000 0.000000 0.000000 -0.961903 1.172685 0.069924 1.095857 -3.272556 -0.430551 -3.112103 8.225948 0.483632 0.000000 0.000000 0.000000 0.000000 0.000000 0.000000 -0.000000 0.000000 0.000000 0.062053 -1.115786 -0.084626 2.289749 -2.427565 0.290046 3.122275 10.713418 -0.933671 0.000000 0.000000 0.000000 0.000000 0.000000 0.000000 0.366346 0.143991 -7.581092 -0.308723 -0.980329 0.012247 0.517734 1.777945 -0.765178 0.000000 0.000000 0.000000 -0.113963 -0.793666 -7.634142 0.351544 0.993133 0.047280 0.578491 -5.831875 -0.045612 0.000000 0.000000 0.000000
